<mxfile host="app.diagrams.net" agent="Mozilla/5.0 (Windows NT 10.0; Win64; x64) AppleWebKit/537.36 (KHTML, like Gecko) Chrome/140.0.0.0 Safari/537.36 Edg/140.0.0.0" version="28.2.3">
  <diagram id="prtHgNgQTEPvFCAcTncT" name="一卡通業務流程">
    <mxGraphModel dx="1770" dy="850" grid="1" gridSize="10" guides="1" tooltips="1" connect="1" arrows="1" fold="1" page="1" pageScale="1" pageWidth="827" pageHeight="1169" math="0" shadow="0">
      <root>
        <mxCell id="0" />
        <mxCell id="1" parent="0" />
        <mxCell id="GD-UVzAfqiyjnFrLrFcY-1" value="一卡通業務流程整理" style="swimlane;childLayout=stackLayout;resizeParent=1;resizeParentMax=0;startSize=20;horizontal=0;horizontalStack=1;" parent="1" vertex="1">
          <mxGeometry x="60" y="50" width="1160" height="1210" as="geometry">
            <mxRectangle x="170" y="80" width="40" height="110" as="alternateBounds" />
          </mxGeometry>
        </mxCell>
        <mxCell id="GD-UVzAfqiyjnFrLrFcY-2" value="全球資訊服務處" style="swimlane;startSize=20;fillColor=none;" parent="GD-UVzAfqiyjnFrLrFcY-1" vertex="1">
          <mxGeometry x="20" width="310" height="1210" as="geometry" />
        </mxCell>
        <mxCell id="GD-UVzAfqiyjnFrLrFcY-10" value="消費設備部署&lt;div&gt;&lt;span style=&quot;background-color: transparent; color: light-dark(rgb(0, 0, 0), rgb(255, 255, 255));&quot;&gt;(&lt;/span&gt;&lt;span style=&quot;background-color: transparent; color: light-dark(rgb(0, 0, 0), rgb(255, 255, 255));&quot;&gt;數據採集&amp;amp;補采、月結異常處理)&lt;/span&gt;&lt;/div&gt;" style="rounded=1;whiteSpace=wrap;html=1;" parent="GD-UVzAfqiyjnFrLrFcY-2" vertex="1">
          <mxGeometry x="60" y="680.5" width="100" height="59" as="geometry" />
        </mxCell>
        <mxCell id="GD-UVzAfqiyjnFrLrFcY-11" value="發卡應用&lt;div&gt;實施與指導&lt;/div&gt;" style="rounded=1;whiteSpace=wrap;html=1;" parent="GD-UVzAfqiyjnFrLrFcY-2" vertex="1">
          <mxGeometry x="60" y="75" width="100" height="30" as="geometry" />
        </mxCell>
        <mxCell id="GD-UVzAfqiyjnFrLrFcY-17" value="考勤設備部署&lt;div&gt;與指導&lt;/div&gt;" style="rounded=1;whiteSpace=wrap;html=1;" parent="GD-UVzAfqiyjnFrLrFcY-2" vertex="1">
          <mxGeometry x="60" y="285" width="100" height="30" as="geometry" />
        </mxCell>
        <mxCell id="GD-UVzAfqiyjnFrLrFcY-29" value="門禁設備部署&lt;div&gt;與指導&lt;/div&gt;" style="rounded=1;whiteSpace=wrap;html=1;" parent="GD-UVzAfqiyjnFrLrFcY-2" vertex="1">
          <mxGeometry x="60" y="470" width="100" height="30" as="geometry" />
        </mxCell>
        <mxCell id="GD-UVzAfqiyjnFrLrFcY-35" value="設備選型&amp;amp;註冊&amp;amp;&lt;div&gt;配置&lt;/div&gt;" style="rounded=1;whiteSpace=wrap;html=1;" parent="GD-UVzAfqiyjnFrLrFcY-2" vertex="1">
          <mxGeometry x="60" y="933" width="100" height="30" as="geometry" />
        </mxCell>
        <mxCell id="Khkc0SXcdV0_vo5VcuuQ-3" value="&lt;div&gt;1、規劃設計發卡系統，包含軟硬體測試&lt;/div&gt;&lt;div&gt;2、安裝發卡軟體並進行教育訓練&lt;/div&gt;&lt;div&gt;3、流水號管理：分配、監控與預警&lt;/div&gt;&lt;div&gt;4、設定充值金額&lt;/div&gt;&lt;div&gt;5、處理異常：發卡軟硬體故障、卡片異常、掛失／解掛、人員數據錯誤&lt;/div&gt;&lt;div&gt;6、維護與優化一卡通平台&lt;/div&gt;&lt;div&gt;7、擔任發卡系統資訊窗口&lt;/div&gt;&lt;div&gt;8、擔任員工卡片資訊窗口&lt;/div&gt;" style="text;align=left;verticalAlign=middle;whiteSpace=wrap;rounded=0;html=1;" parent="GD-UVzAfqiyjnFrLrFcY-2" vertex="1">
          <mxGeometry x="10" y="110" width="300" height="140" as="geometry" />
        </mxCell>
        <mxCell id="Khkc0SXcdV0_vo5VcuuQ-4" value="&lt;div&gt;1、規劃設計考勤系統&lt;/div&gt;&lt;div&gt;2、執行工安管理&lt;/div&gt;&lt;div&gt;3、設備註冊與配置&lt;/div&gt;&lt;div&gt;4、設備調試與校正&lt;/div&gt;&lt;div&gt;5、教育訓練&lt;/div&gt;&lt;div&gt;6、處理異常：網路、名單、數據、軟硬體等問題&lt;/div&gt;&lt;div&gt;7、擔任人資資訊窗口&lt;/div&gt;" style="text;align=left;verticalAlign=middle;whiteSpace=wrap;rounded=0;html=1;" parent="GD-UVzAfqiyjnFrLrFcY-2" vertex="1">
          <mxGeometry x="10" y="321" width="300" height="109" as="geometry" />
        </mxCell>
        <mxCell id="Khkc0SXcdV0_vo5VcuuQ-5" value="&lt;div&gt;1、規劃設計門禁系統，包含軟硬體測試&lt;/div&gt;&lt;div&gt;2、執行工安管理&lt;/div&gt;&lt;div&gt;3、設備註冊與配置&lt;/div&gt;&lt;div&gt;4、設備調試與校正&lt;/div&gt;&lt;div&gt;5、教育訓練&lt;/div&gt;&lt;div&gt;6、處理異常：網路、名單、數據、軟硬體等問題&lt;/div&gt;&lt;div&gt;7、擔任門禁資訊窗口&lt;/div&gt;" style="text;align=left;verticalAlign=middle;whiteSpace=wrap;rounded=0;html=1;" parent="GD-UVzAfqiyjnFrLrFcY-2" vertex="1">
          <mxGeometry x="10" y="510" width="300" height="109" as="geometry" />
        </mxCell>
        <mxCell id="Khkc0SXcdV0_vo5VcuuQ-6" value="&lt;div&gt;1、規劃設計消費系統，包含軟硬體測試&lt;/div&gt;&lt;div&gt;2、管理各類消費設備（POS103、富有萬得、安卓機、海馬機）：註冊、配置、異常處理（名單、時間、網路、參數、數據恢復）&lt;/div&gt;&lt;div&gt;3、系統作業管理：報表核對、數據採集與補采、月結對帳、設備設置與新增、設備對時&lt;/div&gt;&lt;div&gt;4、平台管理：帳號管理、包商資訊增刪改查&lt;/div&gt;" style="text;align=left;verticalAlign=middle;whiteSpace=wrap;rounded=0;html=1;" parent="GD-UVzAfqiyjnFrLrFcY-2" vertex="1">
          <mxGeometry x="10" y="750" width="300" height="109" as="geometry" />
        </mxCell>
        <mxCell id="Khkc0SXcdV0_vo5VcuuQ-7" value="&lt;div&gt;1、新設備選型與功能規劃&lt;/div&gt;&lt;div&gt;2、功能與邏輯測試&lt;/div&gt;&lt;div&gt;3、設備註冊與狀態監控&lt;/div&gt;&lt;div&gt;4、智能提醒機制&lt;/div&gt;&lt;div&gt;5、設備生命週期與版本管理&lt;/div&gt;" style="text;align=left;verticalAlign=middle;whiteSpace=wrap;rounded=0;html=1;" parent="GD-UVzAfqiyjnFrLrFcY-2" vertex="1">
          <mxGeometry x="10" y="970" width="300" height="80" as="geometry" />
        </mxCell>
        <mxCell id="Khkc0SXcdV0_vo5VcuuQ-8" value="數位工卡" style="rounded=1;whiteSpace=wrap;html=1;" parent="GD-UVzAfqiyjnFrLrFcY-2" vertex="1">
          <mxGeometry x="60" y="1110" width="100" height="30" as="geometry" />
        </mxCell>
        <mxCell id="Khkc0SXcdV0_vo5VcuuQ-10" value="1、&lt;span style=&quot;background-color: transparent;&quot;&gt;規劃設計數位工卡系統&lt;/span&gt;&lt;div&gt;2、設備選型與功能測試&lt;/div&gt;&lt;div&gt;3、設備安裝與推廣應用&lt;/div&gt;" style="text;align=left;verticalAlign=middle;whiteSpace=wrap;rounded=0;html=1;" parent="GD-UVzAfqiyjnFrLrFcY-2" vertex="1">
          <mxGeometry x="10" y="1146" width="300" height="52" as="geometry" />
        </mxCell>
        <mxCell id="GD-UVzAfqiyjnFrLrFcY-19" style="edgeStyle=orthogonalEdgeStyle;rounded=0;orthogonalLoop=1;jettySize=auto;html=1;exitX=1;exitY=0.5;exitDx=0;exitDy=0;entryX=0;entryY=0.5;entryDx=0;entryDy=0;" parent="GD-UVzAfqiyjnFrLrFcY-1" source="GD-UVzAfqiyjnFrLrFcY-11" target="GD-UVzAfqiyjnFrLrFcY-95" edge="1">
          <mxGeometry relative="1" as="geometry">
            <mxPoint x="230" y="55" as="targetPoint" />
          </mxGeometry>
        </mxCell>
        <mxCell id="GD-UVzAfqiyjnFrLrFcY-3" value="應用開發二處" style="swimlane;startSize=20;fillColor=none;" parent="GD-UVzAfqiyjnFrLrFcY-1" vertex="1">
          <mxGeometry x="330" width="520" height="1210" as="geometry" />
        </mxCell>
        <mxCell id="GD-UVzAfqiyjnFrLrFcY-97" value="" style="rounded=0;whiteSpace=wrap;html=1;" parent="GD-UVzAfqiyjnFrLrFcY-3" vertex="1">
          <mxGeometry x="10" y="1081" width="490" height="88" as="geometry" />
        </mxCell>
        <mxCell id="GD-UVzAfqiyjnFrLrFcY-98" value="&lt;h1 style=&quot;margin-top: 0px;&quot;&gt;&lt;font style=&quot;font-size: 18px; color: rgb(0, 0, 255);&quot;&gt;數位工卡&lt;/font&gt;&lt;/h1&gt;" style="text;html=1;whiteSpace=wrap;overflow=hidden;rounded=0;" parent="GD-UVzAfqiyjnFrLrFcY-3" vertex="1">
          <mxGeometry x="20" y="1081" width="180" height="40" as="geometry" />
        </mxCell>
        <mxCell id="GD-UVzAfqiyjnFrLrFcY-95" value="" style="rounded=0;whiteSpace=wrap;html=1;" parent="GD-UVzAfqiyjnFrLrFcY-3" vertex="1">
          <mxGeometry x="10" y="46" width="490" height="88" as="geometry" />
        </mxCell>
        <mxCell id="GD-UVzAfqiyjnFrLrFcY-96" value="&lt;h1 style=&quot;margin-top: 0px;&quot;&gt;&lt;font style=&quot;font-size: 18px; color: rgb(0, 0, 255);&quot;&gt;發卡應用&lt;/font&gt;&lt;/h1&gt;" style="text;html=1;whiteSpace=wrap;overflow=hidden;rounded=0;" parent="GD-UVzAfqiyjnFrLrFcY-3" vertex="1">
          <mxGeometry x="20" y="46" width="180" height="40" as="geometry" />
        </mxCell>
        <mxCell id="GD-UVzAfqiyjnFrLrFcY-91" value="" style="rounded=0;whiteSpace=wrap;html=1;" parent="GD-UVzAfqiyjnFrLrFcY-3" vertex="1">
          <mxGeometry x="10" y="256" width="490" height="88" as="geometry" />
        </mxCell>
        <mxCell id="GD-UVzAfqiyjnFrLrFcY-76" value="" style="rounded=0;whiteSpace=wrap;html=1;" parent="GD-UVzAfqiyjnFrLrFcY-3" vertex="1">
          <mxGeometry x="10" y="441" width="490" height="88" as="geometry" />
        </mxCell>
        <mxCell id="GD-UVzAfqiyjnFrLrFcY-70" value="" style="rounded=0;whiteSpace=wrap;html=1;" parent="GD-UVzAfqiyjnFrLrFcY-3" vertex="1">
          <mxGeometry x="10" y="830" width="490" height="236" as="geometry" />
        </mxCell>
        <mxCell id="GD-UVzAfqiyjnFrLrFcY-68" value="" style="rounded=0;whiteSpace=wrap;html=1;" parent="GD-UVzAfqiyjnFrLrFcY-3" vertex="1">
          <mxGeometry x="10" y="610" width="490" height="200" as="geometry" />
        </mxCell>
        <mxCell id="GD-UVzAfqiyjnFrLrFcY-18" value="考勤設備&lt;div&gt;數據採集&lt;/div&gt;" style="rounded=1;whiteSpace=wrap;html=1;" parent="GD-UVzAfqiyjnFrLrFcY-3" vertex="1">
          <mxGeometry x="110" y="303" width="70" height="30" as="geometry" />
        </mxCell>
        <mxCell id="GD-UVzAfqiyjnFrLrFcY-24" value="考勤&lt;div&gt;相信&lt;span style=&quot;background-color: transparent; color: light-dark(rgb(0, 0, 0), rgb(255, 255, 255));&quot;&gt;通知&lt;/span&gt;&lt;/div&gt;" style="rounded=1;whiteSpace=wrap;html=1;" parent="GD-UVzAfqiyjnFrLrFcY-3" vertex="1">
          <mxGeometry x="200" y="303" width="70" height="30" as="geometry" />
        </mxCell>
        <mxCell id="GD-UVzAfqiyjnFrLrFcY-25" value="&lt;span data-teams=&quot;true&quot;&gt;考勤名單&lt;/span&gt;&lt;div&gt;&lt;span data-teams=&quot;true&quot;&gt;授權開發&lt;/span&gt;&lt;/div&gt;" style="rounded=1;whiteSpace=wrap;html=1;" parent="GD-UVzAfqiyjnFrLrFcY-3" vertex="1">
          <mxGeometry x="20" y="303" width="70" height="30" as="geometry" />
        </mxCell>
        <mxCell id="GD-UVzAfqiyjnFrLrFcY-28" value="考勤數據&lt;div&gt;對接人資&lt;/div&gt;" style="rounded=1;whiteSpace=wrap;html=1;" parent="GD-UVzAfqiyjnFrLrFcY-3" vertex="1">
          <mxGeometry x="290" y="303" width="70" height="30" as="geometry" />
        </mxCell>
        <mxCell id="GD-UVzAfqiyjnFrLrFcY-12" value="發卡應用&lt;div&gt;開發&lt;/div&gt;" style="rounded=1;whiteSpace=wrap;html=1;" parent="GD-UVzAfqiyjnFrLrFcY-3" vertex="1">
          <mxGeometry x="20" y="91" width="70" height="30" as="geometry" />
        </mxCell>
        <mxCell id="GD-UVzAfqiyjnFrLrFcY-13" value="自助列印&lt;div&gt;發卡開發&lt;/div&gt;" style="rounded=1;whiteSpace=wrap;html=1;" parent="GD-UVzAfqiyjnFrLrFcY-3" vertex="1">
          <mxGeometry x="110" y="91" width="70" height="30" as="geometry" />
        </mxCell>
        <mxCell id="GD-UVzAfqiyjnFrLrFcY-27" value="福補充值" style="rounded=1;whiteSpace=wrap;html=1;" parent="GD-UVzAfqiyjnFrLrFcY-3" vertex="1">
          <mxGeometry x="200" y="91" width="70" height="30" as="geometry" />
        </mxCell>
        <mxCell id="GD-UVzAfqiyjnFrLrFcY-30" value="門禁人員&lt;div&gt;名單對接&lt;/div&gt;" style="rounded=1;whiteSpace=wrap;html=1;" parent="GD-UVzAfqiyjnFrLrFcY-3" vertex="1">
          <mxGeometry x="110" y="489" width="70" height="30" as="geometry" />
        </mxCell>
        <mxCell id="GD-UVzAfqiyjnFrLrFcY-32" value="&lt;span data-teams=&quot;true&quot;&gt;門禁名單&lt;/span&gt;&lt;div&gt;&lt;span data-teams=&quot;true&quot;&gt;授權開發&lt;/span&gt;&lt;/div&gt;" style="rounded=1;whiteSpace=wrap;html=1;" parent="GD-UVzAfqiyjnFrLrFcY-3" vertex="1">
          <mxGeometry x="20" y="489" width="70" height="30" as="geometry" />
        </mxCell>
        <mxCell id="GD-UVzAfqiyjnFrLrFcY-37" value="&lt;span data-teams=&quot;true&quot;&gt;消費名單&lt;/span&gt;&lt;div&gt;&lt;span data-teams=&quot;true&quot;&gt;授權開發&lt;/span&gt;&lt;/div&gt;" style="rounded=1;whiteSpace=wrap;html=1;" parent="GD-UVzAfqiyjnFrLrFcY-3" vertex="1">
          <mxGeometry x="20" y="710" width="70" height="30" as="geometry" />
        </mxCell>
        <mxCell id="GD-UVzAfqiyjnFrLrFcY-38" value="POS機消費開發" style="rounded=1;whiteSpace=wrap;html=1;" parent="GD-UVzAfqiyjnFrLrFcY-3" vertex="1">
          <mxGeometry x="20" y="658" width="70" height="30" as="geometry" />
        </mxCell>
        <mxCell id="GD-UVzAfqiyjnFrLrFcY-39" value="集團人員&lt;div&gt;同步&lt;span style=&quot;background-color: transparent; color: light-dark(rgb(0, 0, 0), rgb(255, 255, 255));&quot;&gt;開發&lt;/span&gt;&lt;/div&gt;" style="rounded=1;whiteSpace=wrap;html=1;" parent="GD-UVzAfqiyjnFrLrFcY-3" vertex="1">
          <mxGeometry x="290" y="91" width="70" height="30" as="geometry" />
        </mxCell>
        <mxCell id="GD-UVzAfqiyjnFrLrFcY-40" value="消費數據&lt;div&gt;採集開發&lt;/div&gt;" style="rounded=1;whiteSpace=wrap;html=1;" parent="GD-UVzAfqiyjnFrLrFcY-3" vertex="1">
          <mxGeometry x="110" y="710" width="70" height="30" as="geometry" />
        </mxCell>
        <mxCell id="GD-UVzAfqiyjnFrLrFcY-41" value="海馬消費機開發" style="rounded=1;whiteSpace=wrap;html=1;" parent="GD-UVzAfqiyjnFrLrFcY-3" vertex="1">
          <mxGeometry x="200" y="764" width="70" height="30" as="geometry" />
        </mxCell>
        <mxCell id="GD-UVzAfqiyjnFrLrFcY-42" value="華諾消費機開發" style="rounded=1;whiteSpace=wrap;html=1;" parent="GD-UVzAfqiyjnFrLrFcY-3" vertex="1">
          <mxGeometry x="200" y="658" width="70" height="30" as="geometry" />
        </mxCell>
        <mxCell id="GD-UVzAfqiyjnFrLrFcY-43" value="富有萬得&lt;div&gt;售賣機開發&lt;/div&gt;" style="rounded=1;whiteSpace=wrap;html=1;" parent="GD-UVzAfqiyjnFrLrFcY-3" vertex="1">
          <mxGeometry x="290" y="658" width="70" height="30" as="geometry" />
        </mxCell>
        <mxCell id="GD-UVzAfqiyjnFrLrFcY-44" value="青島易觸&lt;div&gt;售賣機開發&lt;/div&gt;" style="rounded=1;whiteSpace=wrap;html=1;" parent="GD-UVzAfqiyjnFrLrFcY-3" vertex="1">
          <mxGeometry x="380" y="658" width="70" height="30" as="geometry" />
        </mxCell>
        <mxCell id="GD-UVzAfqiyjnFrLrFcY-45" value="消費對接&lt;div&gt;財會開發&lt;/div&gt;" style="rounded=1;whiteSpace=wrap;html=1;" parent="GD-UVzAfqiyjnFrLrFcY-3" vertex="1">
          <mxGeometry x="380" y="764" width="70" height="30" as="geometry" />
        </mxCell>
        <mxCell id="GD-UVzAfqiyjnFrLrFcY-46" value="&lt;span style=&quot;cursor: pointer; border-bottom: 2px dotted rgb(51, 153, 255);&quot; data-kimi-recommend=&quot;false&quot; data-kimi-disabled=&quot;false&quot; data-kimi-id=&quot;1749196674228&quot;&gt;消費&lt;/span&gt;&lt;div&gt;&lt;span style=&quot;cursor: pointer; border-bottom: 2px dotted rgb(51, 153, 255);&quot; data-kimi-recommend=&quot;false&quot; data-kimi-disabled=&quot;false&quot; data-kimi-id=&quot;1749196674228&quot;&gt;報表&lt;/span&gt;&lt;span style=&quot;background-color: transparent; color: light-dark(rgb(0, 0, 0), rgb(255, 255, 255));&quot;&gt;開發&lt;/span&gt;&lt;/div&gt;" style="rounded=1;whiteSpace=wrap;html=1;" parent="GD-UVzAfqiyjnFrLrFcY-3" vertex="1">
          <mxGeometry x="200" y="710" width="70" height="30" as="geometry" />
        </mxCell>
        <mxCell id="GD-UVzAfqiyjnFrLrFcY-47" value="&lt;span style=&quot;cursor: pointer; border-bottom: 2px dotted rgb(51, 153, 255);&quot; data-kimi-recommend=&quot;false&quot; data-kimi-disabled=&quot;false&quot; data-kimi-id=&quot;1749196674228&quot;&gt;財會/本地&lt;/span&gt;&lt;div&gt;&lt;span style=&quot;cursor: pointer; border-bottom: 2px dotted rgb(51, 153, 255);&quot; data-kimi-recommend=&quot;false&quot; data-kimi-disabled=&quot;false&quot; data-kimi-id=&quot;1749196674228&quot;&gt;對賬&lt;/span&gt;&lt;/div&gt;" style="rounded=1;whiteSpace=wrap;html=1;" parent="GD-UVzAfqiyjnFrLrFcY-3" vertex="1">
          <mxGeometry x="290" y="764" width="70" height="30" as="geometry" />
        </mxCell>
        <mxCell id="GD-UVzAfqiyjnFrLrFcY-48" value="華諾設備&lt;div&gt;對接平台&lt;/div&gt;" style="rounded=1;whiteSpace=wrap;html=1;" parent="GD-UVzAfqiyjnFrLrFcY-3" vertex="1">
          <mxGeometry x="20" y="879" width="70" height="30" as="geometry" />
        </mxCell>
        <mxCell id="GD-UVzAfqiyjnFrLrFcY-49" value="華付設備&lt;div&gt;對接平台&lt;/div&gt;" style="rounded=1;whiteSpace=wrap;html=1;" parent="GD-UVzAfqiyjnFrLrFcY-3" vertex="1">
          <mxGeometry x="110" y="879" width="70" height="30" as="geometry" />
        </mxCell>
        <mxCell id="GD-UVzAfqiyjnFrLrFcY-50" value="Heimdall&lt;div&gt;數據&lt;span style=&quot;background-color: transparent; color: light-dark(rgb(0, 0, 0), rgb(255, 255, 255));&quot;&gt;對接&lt;/span&gt;&lt;/div&gt;" style="rounded=1;whiteSpace=wrap;html=1;" parent="GD-UVzAfqiyjnFrLrFcY-3" vertex="1">
          <mxGeometry x="110" y="929" width="70" height="30" as="geometry" />
        </mxCell>
        <mxCell id="GD-UVzAfqiyjnFrLrFcY-51" value="CMC103&lt;div&gt;升級開發&lt;/div&gt;" style="rounded=1;whiteSpace=wrap;html=1;" parent="GD-UVzAfqiyjnFrLrFcY-3" vertex="1">
          <mxGeometry x="200" y="879" width="70" height="30" as="geometry" />
        </mxCell>
        <mxCell id="GD-UVzAfqiyjnFrLrFcY-52" value="藍邊物聯&lt;div&gt;讀卡開發&lt;/div&gt;" style="rounded=1;whiteSpace=wrap;html=1;" parent="GD-UVzAfqiyjnFrLrFcY-3" vertex="1">
          <mxGeometry x="20" y="979" width="70" height="30" as="geometry" />
        </mxCell>
        <mxCell id="GD-UVzAfqiyjnFrLrFcY-53" value="Heimdall&lt;div&gt;正掃開發&lt;/div&gt;" style="rounded=1;whiteSpace=wrap;html=1;" parent="GD-UVzAfqiyjnFrLrFcY-3" vertex="1">
          <mxGeometry x="200" y="929" width="70" height="30" as="geometry" />
        </mxCell>
        <mxCell id="GD-UVzAfqiyjnFrLrFcY-54" value="Heimdall&lt;div&gt;反掃開發&lt;/div&gt;" style="rounded=1;whiteSpace=wrap;html=1;" parent="GD-UVzAfqiyjnFrLrFcY-3" vertex="1">
          <mxGeometry x="290" y="929" width="70" height="30" as="geometry" />
        </mxCell>
        <mxCell id="GD-UVzAfqiyjnFrLrFcY-58" value="手持機運維開發" style="rounded=1;whiteSpace=wrap;html=1;" parent="GD-UVzAfqiyjnFrLrFcY-3" vertex="1">
          <mxGeometry x="290" y="879" width="70" height="30" as="geometry" />
        </mxCell>
        <mxCell id="GD-UVzAfqiyjnFrLrFcY-59" value="CMC100/&lt;span style=&quot;background-color: transparent; color: light-dark(rgb(0, 0, 0), rgb(255, 255, 255));&quot;&gt;PAN201A&lt;/span&gt;&lt;div&gt;&lt;span style=&quot;background-color: transparent; color: light-dark(rgb(0, 0, 0), rgb(255, 255, 255));&quot;&gt;讀卡開發&lt;/span&gt;&lt;/div&gt;" style="rounded=1;whiteSpace=wrap;html=1;" parent="GD-UVzAfqiyjnFrLrFcY-3" vertex="1">
          <mxGeometry x="380" y="879" width="110" height="30" as="geometry" />
        </mxCell>
        <mxCell id="GD-UVzAfqiyjnFrLrFcY-60" value="Heimdall&lt;div&gt;讀卡&lt;span style=&quot;background-color: transparent; color: light-dark(rgb(0, 0, 0), rgb(255, 255, 255));&quot;&gt;開發&lt;/span&gt;&lt;/div&gt;" style="rounded=1;whiteSpace=wrap;html=1;" parent="GD-UVzAfqiyjnFrLrFcY-3" vertex="1">
          <mxGeometry x="20" y="929" width="70" height="30" as="geometry" />
        </mxCell>
        <mxCell id="GD-UVzAfqiyjnFrLrFcY-61" value="藍邊物聯&lt;div&gt;對接平台&lt;/div&gt;" style="rounded=1;whiteSpace=wrap;html=1;" parent="GD-UVzAfqiyjnFrLrFcY-3" vertex="1">
          <mxGeometry x="110" y="979" width="70" height="30" as="geometry" />
        </mxCell>
        <mxCell id="GD-UVzAfqiyjnFrLrFcY-62" value="藍邊物聯&lt;br&gt;&lt;div&gt;正掃開發&lt;/div&gt;" style="rounded=1;whiteSpace=wrap;html=1;" parent="GD-UVzAfqiyjnFrLrFcY-3" vertex="1">
          <mxGeometry x="200" y="979" width="70" height="30" as="geometry" />
        </mxCell>
        <mxCell id="GD-UVzAfqiyjnFrLrFcY-63" value="藍邊物聯&lt;br&gt;&lt;div&gt;反掃開發&lt;/div&gt;" style="rounded=1;whiteSpace=wrap;html=1;" parent="GD-UVzAfqiyjnFrLrFcY-3" vertex="1">
          <mxGeometry x="290" y="979" width="70" height="30" as="geometry" />
        </mxCell>
        <mxCell id="GD-UVzAfqiyjnFrLrFcY-64" value="福補管理" style="rounded=1;whiteSpace=wrap;html=1;" parent="GD-UVzAfqiyjnFrLrFcY-3" vertex="1">
          <mxGeometry x="290" y="710" width="70" height="30" as="geometry" />
        </mxCell>
        <mxCell id="GD-UVzAfqiyjnFrLrFcY-66" value="門禁設備&lt;div&gt;數據採集&lt;/div&gt;" style="rounded=1;whiteSpace=wrap;html=1;" parent="GD-UVzAfqiyjnFrLrFcY-3" vertex="1">
          <mxGeometry x="200" y="489" width="70" height="30" as="geometry" />
        </mxCell>
        <mxCell id="GD-UVzAfqiyjnFrLrFcY-77" value="人員/照片&lt;div&gt;對接&lt;span style=&quot;background-color: transparent; color: light-dark(rgb(0, 0, 0), rgb(255, 255, 255));&quot;&gt;開發&lt;/span&gt;&lt;/div&gt;" style="rounded=1;whiteSpace=wrap;html=1;" parent="GD-UVzAfqiyjnFrLrFcY-3" vertex="1">
          <mxGeometry x="20" y="1025" width="70" height="30" as="geometry" />
        </mxCell>
        <mxCell id="GD-UVzAfqiyjnFrLrFcY-78" value="人員設備&lt;div&gt;授權開發&lt;/div&gt;" style="rounded=1;whiteSpace=wrap;html=1;" parent="GD-UVzAfqiyjnFrLrFcY-3" vertex="1">
          <mxGeometry x="110" y="1025" width="70" height="30" as="geometry" />
        </mxCell>
        <mxCell id="GD-UVzAfqiyjnFrLrFcY-79" value="平台統一&lt;div&gt;接口開發&lt;/div&gt;" style="rounded=1;whiteSpace=wrap;html=1;" parent="GD-UVzAfqiyjnFrLrFcY-3" vertex="1">
          <mxGeometry x="200" y="1025" width="70" height="30" as="geometry" />
        </mxCell>
        <mxCell id="GD-UVzAfqiyjnFrLrFcY-81" value="數位工卡&lt;div&gt;開發&lt;/div&gt;" style="rounded=1;whiteSpace=wrap;html=1;" parent="GD-UVzAfqiyjnFrLrFcY-3" vertex="1">
          <mxGeometry x="20" y="1127" width="70" height="30" as="geometry" />
        </mxCell>
        <mxCell id="GD-UVzAfqiyjnFrLrFcY-65" value="消費&lt;div&gt;相信&lt;span style=&quot;background-color: transparent; color: light-dark(rgb(0, 0, 0), rgb(255, 255, 255));&quot;&gt;通知&lt;/span&gt;&lt;/div&gt;" style="rounded=1;whiteSpace=wrap;html=1;" parent="GD-UVzAfqiyjnFrLrFcY-3" vertex="1">
          <mxGeometry x="20" y="764" width="70" height="30" as="geometry" />
        </mxCell>
        <mxCell id="GD-UVzAfqiyjnFrLrFcY-85" value="Kiosk&lt;div&gt;消費開發&lt;/div&gt;" style="rounded=1;whiteSpace=wrap;html=1;" parent="GD-UVzAfqiyjnFrLrFcY-3" vertex="1">
          <mxGeometry x="110" y="658" width="70" height="30" as="geometry" />
        </mxCell>
        <mxCell id="GD-UVzAfqiyjnFrLrFcY-88" value="&lt;h1 style=&quot;margin-top: 0px;&quot;&gt;&lt;font style=&quot;font-size: 18px; color: rgb(0, 0, 255);&quot;&gt;設備管理&lt;/font&gt;&lt;/h1&gt;" style="text;html=1;whiteSpace=wrap;overflow=hidden;rounded=0;" parent="GD-UVzAfqiyjnFrLrFcY-3" vertex="1">
          <mxGeometry x="20" y="830" width="180" height="40" as="geometry" />
        </mxCell>
        <mxCell id="GD-UVzAfqiyjnFrLrFcY-89" value="&lt;h1 style=&quot;margin-top: 0px;&quot;&gt;&lt;font style=&quot;font-size: 18px; color: rgb(0, 0, 255);&quot;&gt;消費管理&lt;/font&gt;&lt;/h1&gt;" style="text;html=1;whiteSpace=wrap;overflow=hidden;rounded=0;" parent="GD-UVzAfqiyjnFrLrFcY-3" vertex="1">
          <mxGeometry x="20" y="611" width="180" height="40" as="geometry" />
        </mxCell>
        <mxCell id="GD-UVzAfqiyjnFrLrFcY-90" value="&lt;h1 style=&quot;margin-top: 0px;&quot;&gt;&lt;font style=&quot;font-size: 18px; color: rgb(0, 0, 255);&quot;&gt;門禁應用&lt;/font&gt;&lt;/h1&gt;" style="text;html=1;whiteSpace=wrap;overflow=hidden;rounded=0;" parent="GD-UVzAfqiyjnFrLrFcY-3" vertex="1">
          <mxGeometry x="20" y="441" width="180" height="40" as="geometry" />
        </mxCell>
        <mxCell id="GD-UVzAfqiyjnFrLrFcY-92" value="&lt;h1 style=&quot;margin-top: 0px;&quot;&gt;&lt;font style=&quot;font-size: 18px; color: rgb(0, 0, 255);&quot;&gt;考勤應用&lt;/font&gt;&lt;/h1&gt;" style="text;html=1;whiteSpace=wrap;overflow=hidden;rounded=0;" parent="GD-UVzAfqiyjnFrLrFcY-3" vertex="1">
          <mxGeometry x="20" y="256" width="180" height="40" as="geometry" />
        </mxCell>
        <mxCell id="GD-UVzAfqiyjnFrLrFcY-99" value="數位工卡&lt;div&gt;考勤應用&lt;/div&gt;" style="rounded=1;whiteSpace=wrap;html=1;" parent="GD-UVzAfqiyjnFrLrFcY-3" vertex="1">
          <mxGeometry x="110" y="1127" width="70" height="30" as="geometry" />
        </mxCell>
        <mxCell id="GD-UVzAfqiyjnFrLrFcY-100" value="數位工卡&lt;div&gt;門禁應用&lt;/div&gt;" style="rounded=1;whiteSpace=wrap;html=1;" parent="GD-UVzAfqiyjnFrLrFcY-3" vertex="1">
          <mxGeometry x="200" y="1127" width="70" height="30" as="geometry" />
        </mxCell>
        <mxCell id="GD-UVzAfqiyjnFrLrFcY-101" value="數位工卡&lt;div&gt;消費應用&lt;/div&gt;" style="rounded=1;whiteSpace=wrap;html=1;" parent="GD-UVzAfqiyjnFrLrFcY-3" vertex="1">
          <mxGeometry x="290" y="1127" width="70" height="30" as="geometry" />
        </mxCell>
        <mxCell id="c0n_8q_vGjEcCh9gn-81-16" value="&lt;span data-teams=&quot;true&quot;&gt;消費數據&lt;/span&gt;&lt;div&gt;&lt;span data-teams=&quot;true&quot;&gt;接口開發&lt;/span&gt;&lt;/div&gt;" style="rounded=1;whiteSpace=wrap;html=1;" parent="GD-UVzAfqiyjnFrLrFcY-3" vertex="1">
          <mxGeometry x="110" y="764" width="70" height="30" as="geometry" />
        </mxCell>
        <mxCell id="c0n_8q_vGjEcCh9gn-81-18" value="設備&amp;amp;餐包商管理" style="rounded=1;whiteSpace=wrap;html=1;" parent="GD-UVzAfqiyjnFrLrFcY-3" vertex="1">
          <mxGeometry x="380" y="710" width="70" height="30" as="geometry" />
        </mxCell>
        <mxCell id="GD-UVzAfqiyjnFrLrFcY-34" style="edgeStyle=orthogonalEdgeStyle;rounded=0;orthogonalLoop=1;jettySize=auto;html=1;exitX=1;exitY=0.5;exitDx=0;exitDy=0;entryX=0;entryY=0.5;entryDx=0;entryDy=0;" parent="GD-UVzAfqiyjnFrLrFcY-1" source="GD-UVzAfqiyjnFrLrFcY-29" target="GD-UVzAfqiyjnFrLrFcY-76" edge="1">
          <mxGeometry relative="1" as="geometry">
            <mxPoint x="220" y="504" as="targetPoint" />
          </mxGeometry>
        </mxCell>
        <mxCell id="GD-UVzAfqiyjnFrLrFcY-67" style="edgeStyle=orthogonalEdgeStyle;rounded=0;orthogonalLoop=1;jettySize=auto;html=1;entryX=0;entryY=0.5;entryDx=0;entryDy=0;" parent="GD-UVzAfqiyjnFrLrFcY-1" source="GD-UVzAfqiyjnFrLrFcY-10" target="GD-UVzAfqiyjnFrLrFcY-68" edge="1">
          <mxGeometry relative="1" as="geometry">
            <mxPoint x="230" y="709" as="targetPoint" />
          </mxGeometry>
        </mxCell>
        <mxCell id="GD-UVzAfqiyjnFrLrFcY-71" style="edgeStyle=orthogonalEdgeStyle;rounded=0;orthogonalLoop=1;jettySize=auto;html=1;" parent="GD-UVzAfqiyjnFrLrFcY-1" source="GD-UVzAfqiyjnFrLrFcY-35" target="GD-UVzAfqiyjnFrLrFcY-70" edge="1">
          <mxGeometry relative="1" as="geometry" />
        </mxCell>
        <mxCell id="GD-UVzAfqiyjnFrLrFcY-26" style="edgeStyle=orthogonalEdgeStyle;rounded=0;orthogonalLoop=1;jettySize=auto;html=1;exitX=1;exitY=0.5;exitDx=0;exitDy=0;entryX=0;entryY=0.5;entryDx=0;entryDy=0;" parent="GD-UVzAfqiyjnFrLrFcY-1" source="GD-UVzAfqiyjnFrLrFcY-17" target="GD-UVzAfqiyjnFrLrFcY-91" edge="1">
          <mxGeometry relative="1" as="geometry">
            <mxPoint x="230" y="301" as="targetPoint" />
          </mxGeometry>
        </mxCell>
        <mxCell id="GD-UVzAfqiyjnFrLrFcY-4" value="應用開發一處" style="swimlane;startSize=20;" parent="GD-UVzAfqiyjnFrLrFcY-1" vertex="1">
          <mxGeometry x="850" width="310" height="1210" as="geometry">
            <mxRectangle x="260" width="40" height="480" as="alternateBounds" />
          </mxGeometry>
        </mxCell>
        <mxCell id="c0n_8q_vGjEcCh9gn-81-1" value="消費一體機推動" style="rounded=1;whiteSpace=wrap;html=1;" parent="GD-UVzAfqiyjnFrLrFcY-4" vertex="1">
          <mxGeometry x="101" y="415" width="100" height="30" as="geometry" />
        </mxCell>
        <mxCell id="c0n_8q_vGjEcCh9gn-81-2" value="&lt;div&gt;1、集團園區推廣及運維服務&lt;/div&gt;&lt;div&gt;2、商戶入駐開通服務&lt;/div&gt;&lt;div&gt;3、整合移動支付/工卡支付功能&lt;/div&gt;&lt;div&gt;4、設備配置管理(含啟動,變更等)&lt;/div&gt;&lt;div&gt;5、消費機選型評估及發展規劃&lt;/div&gt;" style="text;align=left;verticalAlign=middle;whiteSpace=wrap;rounded=0;html=1;" parent="GD-UVzAfqiyjnFrLrFcY-4" vertex="1">
          <mxGeometry x="31" y="456" width="300" height="79" as="geometry" />
        </mxCell>
        <mxCell id="c0n_8q_vGjEcCh9gn-81-3" value="VIP商務餐飲平臺" style="rounded=1;whiteSpace=wrap;html=1;" parent="GD-UVzAfqiyjnFrLrFcY-4" vertex="1">
          <mxGeometry x="100" y="550.5" width="100" height="30" as="geometry" />
        </mxCell>
        <mxCell id="c0n_8q_vGjEcCh9gn-81-4" value="&lt;div&gt;1、消費許可權名單管理&lt;/div&gt;&lt;div&gt;2、消費額度數據管理(生成及分發)&lt;/div&gt;&lt;div&gt;3、交易帳單數據管理&lt;/div&gt;&lt;div&gt;4、商家管理配置&lt;/div&gt;&lt;div&gt;5、集成線上點餐/線下消費&lt;/div&gt;" style="text;align=left;verticalAlign=middle;whiteSpace=wrap;rounded=0;html=1;" parent="GD-UVzAfqiyjnFrLrFcY-4" vertex="1">
          <mxGeometry x="30" y="590.5" width="300" height="79" as="geometry" />
        </mxCell>
        <mxCell id="c0n_8q_vGjEcCh9gn-81-5" value="集團消費數據&lt;div&gt;中心建置&lt;/div&gt;" style="rounded=1;whiteSpace=wrap;html=1;" parent="GD-UVzAfqiyjnFrLrFcY-4" vertex="1">
          <mxGeometry x="101" y="690" width="100" height="30" as="geometry" />
        </mxCell>
        <mxCell id="c0n_8q_vGjEcCh9gn-81-6" value="&lt;div&gt;1、整合集團消費數據及視覺化開發&lt;/div&gt;&lt;div&gt;2、各園區管理平臺數據接口開發服務&lt;/div&gt;&lt;div&gt;3、消費機全數據採集&lt;/div&gt;&lt;div&gt;4、消費機數據調用API開發及狀況監控&lt;/div&gt;&lt;div&gt;5、用戶服務管理(集團內單位/餐包商)&lt;/div&gt;&lt;div&gt;6、數據統計服務(實時查詢/結算報表)&lt;/div&gt;" style="text;align=left;verticalAlign=middle;whiteSpace=wrap;rounded=0;html=1;" parent="GD-UVzAfqiyjnFrLrFcY-4" vertex="1">
          <mxGeometry x="31" y="725" width="300" height="105" as="geometry" />
        </mxCell>
        <mxCell id="c0n_8q_vGjEcCh9gn-81-7" value="集團結算平臺建置" style="rounded=1;whiteSpace=wrap;html=1;" parent="GD-UVzAfqiyjnFrLrFcY-4" vertex="1">
          <mxGeometry x="101" y="838" width="100" height="30" as="geometry" />
        </mxCell>
        <mxCell id="c0n_8q_vGjEcCh9gn-81-8" value="&lt;div&gt;1、建置集團結算中心(含餐飲消費、住宿費代扣)&lt;/div&gt;&lt;div&gt;2、結算平臺前置資料管理(人事資料歸集)&lt;/div&gt;&lt;div&gt;3、結算資料分發服務(人資代扣/供應商結算對帳)&lt;/div&gt;&lt;div&gt;4、人資代扣自動回傳及追蹤&lt;/div&gt;&lt;div&gt;5、會計代扣帳務審計稽核&lt;/div&gt;&lt;div&gt;6、VIP商務餐飲費用對帳結報&lt;/div&gt;" style="text;align=left;verticalAlign=middle;whiteSpace=wrap;rounded=0;html=1;" parent="GD-UVzAfqiyjnFrLrFcY-4" vertex="1">
          <mxGeometry x="31" y="878" width="300" height="105" as="geometry" />
        </mxCell>
        <mxCell id="c0n_8q_vGjEcCh9gn-81-11" value="" style="strokeWidth=2;html=1;shape=mxgraph.flowchart.annotation_2;align=left;labelPosition=right;pointerEvents=1;" parent="GD-UVzAfqiyjnFrLrFcY-4" vertex="1">
          <mxGeometry x="-20" y="490" width="50" height="440" as="geometry" />
        </mxCell>
        <mxCell id="c0n_8q_vGjEcCh9gn-81-15" value="" style="endArrow=classic;html=1;rounded=0;entryX=0.504;entryY=0.501;entryDx=0;entryDy=0;entryPerimeter=0;exitX=0;exitY=0.5;exitDx=0;exitDy=0;exitPerimeter=0;" parent="GD-UVzAfqiyjnFrLrFcY-4" source="c0n_8q_vGjEcCh9gn-81-11" target="c0n_8q_vGjEcCh9gn-81-11" edge="1">
          <mxGeometry width="50" height="50" relative="1" as="geometry">
            <mxPoint x="-320" y="800" as="sourcePoint" />
            <mxPoint x="-270" y="750" as="targetPoint" />
          </mxGeometry>
        </mxCell>
        <mxCell id="Khkc0SXcdV0_vo5VcuuQ-9" style="edgeStyle=orthogonalEdgeStyle;rounded=0;orthogonalLoop=1;jettySize=auto;html=1;exitX=1;exitY=0.5;exitDx=0;exitDy=0;entryX=0;entryY=0.5;entryDx=0;entryDy=0;" parent="GD-UVzAfqiyjnFrLrFcY-1" source="Khkc0SXcdV0_vo5VcuuQ-8" target="GD-UVzAfqiyjnFrLrFcY-97" edge="1">
          <mxGeometry relative="1" as="geometry">
            <mxPoint x="280" y="1080" as="sourcePoint" />
            <mxPoint x="440" y="1080" as="targetPoint" />
          </mxGeometry>
        </mxCell>
        <mxCell id="F5MuJ-Wi5Ykkq9IBG96A-1" value="" style="rounded=0;whiteSpace=wrap;html=1;strokeColor=default;align=center;verticalAlign=middle;fontFamily=Helvetica;fontSize=12;fontColor=default;fillColor=default;" parent="1" vertex="1">
          <mxGeometry x="1370" y="65" width="120" height="60" as="geometry" />
        </mxCell>
      </root>
    </mxGraphModel>
  </diagram>
</mxfile>
